<svg width="116" height="19" viewBox="0 0 116 19" fill="none" xmlns="http://www.w3.org/2000/svg">
<path d="M0.632 18V1.2H11.6V3.672H3.704V8.28H10.88V10.68H3.704V15.528H11.6V18H0.632ZM19.907 18.288C18.787 18.288 17.787 18.016 16.907 17.472C16.027 16.928 15.331 16.184 14.819 15.24C14.307 14.296 14.051 13.224 14.051 12.024C14.051 10.824 14.307 9.76 14.819 8.832C15.331 7.888 16.027 7.152 16.907 6.624C17.787 6.08 18.787 5.808 19.907 5.808C20.803 5.808 21.587 5.976 22.259 6.312C22.931 6.648 23.475 7.12 23.891 7.728V0.719999H26.963V18H24.227L23.891 16.296C23.507 16.824 22.995 17.288 22.355 17.688C21.731 18.088 20.915 18.288 19.907 18.288ZM20.555 15.6C21.547 15.6 22.355 15.272 22.979 14.616C23.619 13.944 23.939 13.088 23.939 12.048C23.939 11.008 23.619 10.16 22.979 9.504C22.355 8.832 21.547 8.496 20.555 8.496C19.579 8.496 18.771 8.824 18.131 9.48C17.491 10.136 17.171 10.984 17.171 12.024C17.171 13.064 17.491 13.92 18.131 14.592C18.771 15.264 19.579 15.6 20.555 15.6ZM34.5553 18.288C33.0673 18.288 31.9153 17.824 31.0993 16.896C30.2993 15.968 29.8993 14.608 29.8993 12.816V6.096H32.9473V12.528C32.9473 13.552 33.1553 14.336 33.5713 14.88C33.9873 15.424 34.6433 15.696 35.5393 15.696C36.3873 15.696 37.0833 15.392 37.6273 14.784C38.1873 14.176 38.4673 13.328 38.4673 12.24V6.096H41.5393V18H38.8273L38.5873 15.984C38.2193 16.688 37.6833 17.248 36.9793 17.664C36.2913 18.08 35.4833 18.288 34.5553 18.288ZM50.5248 18.288C49.3088 18.288 48.2368 18.024 47.3088 17.496C46.3808 16.968 45.6448 16.232 45.1008 15.288C44.5728 14.344 44.3088 13.264 44.3088 12.048C44.3088 10.832 44.5728 9.752 45.1008 8.808C45.6448 7.864 46.3808 7.128 47.3088 6.6C48.2368 6.072 49.3088 5.808 50.5248 5.808C52.0448 5.808 53.3248 6.208 54.3648 7.008C55.4048 7.792 56.0688 8.88 56.3568 10.272H53.1168C52.9568 9.696 52.6368 9.248 52.1568 8.928C51.6928 8.592 51.1408 8.424 50.5008 8.424C49.6528 8.424 48.9328 8.744 48.3408 9.384C47.7488 10.024 47.4528 10.912 47.4528 12.048C47.4528 13.184 47.7488 14.072 48.3408 14.712C48.9328 15.352 49.6528 15.672 50.5008 15.672C51.1408 15.672 51.6928 15.512 52.1568 15.192C52.6368 14.872 52.9568 14.416 53.1168 13.824H56.3568C56.0688 15.168 55.4048 16.248 54.3648 17.064C53.3248 17.88 52.0448 18.288 50.5248 18.288ZM63.1874 18.288C62.1634 18.288 61.3234 18.128 60.6674 17.808C60.0114 17.472 59.5234 17.032 59.2034 16.488C58.8834 15.944 58.7234 15.344 58.7234 14.688C58.7234 13.584 59.1554 12.688 60.0194 12C60.8834 11.312 62.1794 10.968 63.9074 10.968H66.9314V10.68C66.9314 9.864 66.6994 9.264 66.2354 8.88C65.7714 8.496 65.1954 8.304 64.5074 8.304C63.8834 8.304 63.3394 8.456 62.8754 8.76C62.4114 9.048 62.1234 9.48 62.0114 10.056H59.0114C59.0914 9.192 59.3794 8.44 59.8754 7.8C60.3874 7.16 61.0434 6.672 61.8434 6.336C62.6434 5.984 63.5394 5.808 64.5314 5.808C66.2274 5.808 67.5634 6.232 68.5394 7.08C69.5154 7.928 70.0034 9.128 70.0034 10.68V18H67.3874L67.0994 16.08C66.7474 16.72 66.2514 17.248 65.6114 17.664C64.9874 18.08 64.1794 18.288 63.1874 18.288ZM63.8834 15.888C64.7634 15.888 65.4434 15.6 65.9234 15.024C66.4194 14.448 66.7314 13.736 66.8594 12.888H64.2434C63.4274 12.888 62.8434 13.04 62.4914 13.344C62.1394 13.632 61.9634 13.992 61.9634 14.424C61.9634 14.888 62.1394 15.248 62.4914 15.504C62.8434 15.76 63.3074 15.888 63.8834 15.888ZM78.0749 18C76.8269 18 75.8269 17.696 75.0749 17.088C74.3229 16.48 73.9469 15.4 73.9469 13.848V8.664H71.9069V6.096H73.9469L74.3069 2.904H77.0189V6.096H80.2349V8.664H77.0189V13.872C77.0189 14.448 77.1389 14.848 77.3789 15.072C77.6349 15.28 78.0669 15.384 78.6749 15.384H80.1629V18H78.0749ZM84.5285 4.248C83.9685 4.248 83.5045 4.08 83.1365 3.744C82.7845 3.408 82.6085 2.984 82.6085 2.472C82.6085 1.96 82.7845 1.544 83.1365 1.224C83.5045 0.887999 83.9685 0.719999 84.5285 0.719999C85.0885 0.719999 85.5445 0.887999 85.8965 1.224C86.2645 1.544 86.4485 1.96 86.4485 2.472C86.4485 2.984 86.2645 3.408 85.8965 3.744C85.5445 4.08 85.0885 4.248 84.5285 4.248ZM82.9925 18V6.096H86.0645V18H82.9925ZM94.9829 18.288C93.8309 18.288 92.7909 18.024 91.8629 17.496C90.9509 16.968 90.2229 16.24 89.6789 15.312C89.1509 14.368 88.8869 13.28 88.8869 12.048C88.8869 10.816 89.1589 9.736 89.7029 8.808C90.2469 7.864 90.9749 7.128 91.8869 6.6C92.8149 6.072 93.8549 5.808 95.0069 5.808C96.1429 5.808 97.1669 6.072 98.0789 6.6C99.0069 7.128 99.7349 7.864 100.263 8.808C100.807 9.736 101.079 10.816 101.079 12.048C101.079 13.28 100.807 14.368 100.263 15.312C99.7349 16.24 99.0069 16.968 98.0789 17.496C97.1509 18.024 96.1189 18.288 94.9829 18.288ZM94.9829 15.624C95.7829 15.624 96.4789 15.328 97.0709 14.736C97.6629 14.128 97.9589 13.232 97.9589 12.048C97.9589 10.864 97.6629 9.976 97.0709 9.384C96.4789 8.776 95.7909 8.472 95.0069 8.472C94.1909 8.472 93.4869 8.776 92.8949 9.384C92.3189 9.976 92.0309 10.864 92.0309 12.048C92.0309 13.232 92.3189 14.128 92.8949 14.736C93.4869 15.328 94.1829 15.624 94.9829 15.624ZM103.826 18V6.096H106.538L106.778 8.112C107.146 7.408 107.674 6.848 108.362 6.432C109.066 6.016 109.89 5.808 110.834 5.808C112.306 5.808 113.45 6.272 114.266 7.2C115.082 8.128 115.49 9.488 115.49 11.28V18H112.418V11.568C112.418 10.544 112.21 9.76 111.794 9.216C111.378 8.672 110.73 8.4 109.85 8.4C108.986 8.4 108.274 8.704 107.714 9.312C107.17 9.92 106.898 10.768 106.898 11.856V18H103.826Z" fill="#222222"/>
</svg>
